#tb 0: 1/25
#media_type 0: video
#codec_id 0: rawvideo
#dimensions 0: 176x144
#sar 0: 0/1
0,          0,          0,        1,    38016, 0xc805351d
0,          1,          1,        1,    38016, 0x3809fec3
0,          2,          2,        1,    38016, 0xf698ce3c
0,          3,          3,        1,    38016, 0x7e3da603
0,          4,          4,        1,    38016, 0x68b07d81
0,          5,          5,        1,    38016, 0xd91f717a
0,          6,          6,        1,    38016, 0x48885dd6
0,          7,          7,        1,    38016, 0x27e64e8e
0,          8,          8,        1,    38016, 0x955835ce
0,          9,          9,        1,    38016, 0xf19940a0
0,         10,         10,        1,    38016, 0x9a1c51e4
0,         11,         11,        1,    38016, 0xf59373af
0,         12,         12,        1,    38016, 0x5d6c7d06
0,         13,         13,        1,    38016, 0x32fca533
0,         14,         14,        1,    38016, 0x37e69987
0,         15,         15,        1,    38016, 0x96929e05
0,         16,         16,        1,    38016, 0xee37a1f9
0,         17,         17,        1,    38016, 0xc6279d8f
0,         18,         18,        1,    38016, 0x33d28b0a
0,         19,         19,        1,    38016, 0x42946b72
0,         20,         20,        1,    38016, 0x51e947bf
0,         21,         21,        1,    38016, 0xb10b2399
0,         22,         22,        1,    38016, 0x250c0fe4
0,         23,         23,        1,    38016, 0x81e20b18
0,         24,         24,        1,    38016, 0xb93f00db
0,         25,         25,        1,    38016, 0x4f9d13d8
0,         26,         26,        1,    38016, 0x7d9c1184
0,         27,         27,        1,    38016, 0xd3271d2c
0,         28,         28,        1,    38016, 0x9b253539
0,         29,         29,        1,    38016, 0xc4fd4d89
0,         30,         30,        1,    38016, 0x006f63cc
0,         31,         31,        1,    38016, 0xa7d976b4
0,         32,         32,        1,    38016, 0x30de94d6
0,         33,         33,        1,    38016, 0x2cb7a745
0,         34,         34,        1,    38016, 0xa7a2b854
0,         35,         35,        1,    38016, 0x1ca1ba1a
0,         36,         36,        1,    38016, 0x13b2b430
0,         37,         37,        1,    38016, 0x82bbb2de
0,         38,         38,        1,    38016, 0x5fa0b4f9
0,         39,         39,        1,    38016, 0xedefb64d
0,         40,         40,        1,    38016, 0x5ccdbf33
0,         41,         41,        1,    38016, 0x4fd0b4bb
0,         42,         42,        1,    38016, 0x195fa008
0,         43,         43,        1,    38016, 0xda1494e0
0,         44,         44,        1,    38016, 0x98ac8fa6
0,         45,         45,        1,    38016, 0xd1548835
0,         46,         46,        1,    38016, 0x35c790ee
0,         47,         47,        1,    38016, 0xecda84f1
0,         48,         48,        1,    38016, 0x9d9f8710
0,         49,         49,        1,    38016, 0x72d89581
